<?xml version="1.0" encoding="UTF-8" standalone="no"?>
<svg
   xmlns:dc="http://purl.org/dc/elements/1.1/"
   xmlns:cc="http://creativecommons.org/ns#"
   xmlns:rdf="http://www.w3.org/1999/02/22-rdf-syntax-ns#"
   xmlns:svg="http://www.w3.org/2000/svg"
   xmlns="http://www.w3.org/2000/svg"
   xmlns:sodipodi="http://sodipodi.sourceforge.net/DTD/sodipodi-0.dtd"
   xmlns:inkscape="http://www.inkscape.org/namespaces/inkscape"
   enable-background="new 0 0 50 50"
   id="Layer_1"
   version="1.1"
   viewBox="0 0 50 50"
   xml:space="preserve"
   sodipodi:docname="1490396699_27.svg"
   inkscape:version="0.92.1 r"><metadata
     id="metadata18"><rdf:RDF><cc:Work
         rdf:about=""><dc:format>image/svg+xml</dc:format><dc:type
           rdf:resource="http://purl.org/dc/dcmitype/StillImage" /></cc:Work></rdf:RDF></metadata><defs
     id="defs16"><style
       id="style4495">.cls-1{fill:#ba63c6;}</style></defs><sodipodi:namedview
     pagecolor="#ffffff"
     bordercolor="#666666"
     borderopacity="1"
     objecttolerance="10"
     gridtolerance="10"
     guidetolerance="10"
     inkscape:pageopacity="0"
     inkscape:pageshadow="2"
     inkscape:window-width="1440"
     inkscape:window-height="874"
     id="namedview14"
     showgrid="false"
     inkscape:zoom="4.72"
     inkscape:cx="59.325203"
     inkscape:cy="46.531514"
     inkscape:window-x="0"
     inkscape:window-y="768"
     inkscape:window-maximized="1"
     inkscape:current-layer="Layer_1" /><path
     d="M 45,1 H 5 C 2.8,1 1,2.8 1,5 v 40 c 0,2.2 1.8,4 4,4 h 40 c 2.2,0 4,-1.8 4,-4 V 5 C 49,2.8 47.2,1 45,1 Z"
     id="path2"
     inkscape:connector-curvature="0"
     style="fill:#00695c;fill-opacity:1" /><g
     id="g4516"
     transform="translate(-0.39557478,-0.1918324)"><g
       transform="matrix(1.1319843,0,0,1.1319843,-6.3664533,-6.0613685)"
       id="W_2_"><path
         style="fill:#ffffff"
         inkscape:connector-curvature="0"
         id="path4"
         d="m 10,25 c 0,5.9 3.5,11.1 8.5,13.5 L 11.3,18.9 C 10.5,20.8 10,22.8 10,25 Z" /><path
         style="fill:#ffffff"
         inkscape:connector-curvature="0"
         id="path6"
         d="m 35.1,24.2 c 0,-1.9 -0.7,-3.1 -1.2,-4.1 -0.8,-1.2 -1.5,-2.3 -1.5,-3.5 0,-1.4 1,-2.7 2.5,-2.7 0.1,0 0.1,0 0.2,0 C 32.5,11.5 28.9,10 25,10 c -5.2,0 -9.9,2.7 -12.5,6.8 0.4,0 0.7,0 1,0 1.6,0 4,-0.2 4,-0.2 0.8,0 0.9,1.1 0.1,1.2 0,0 -0.8,0.1 -1.7,0.1 l 5.5,16.2 3.3,-9.8 -2.5,-6.3 c -0.8,0 -1.6,-0.1 -1.6,-0.1 -0.8,0 -0.7,-1.3 0.1,-1.2 0,0 2.5,0.2 4,0.2 1.6,0 4,-0.2 4,-0.2 0.8,0 0.9,1.1 0.1,1.2 0,0 -0.8,0.1 -1.7,0.1 l 5.4,16.1 1.5,-5 c 0.6,-2.1 1.1,-3.6 1.1,-4.9 z" /><path
         style="fill:#ffffff"
         inkscape:connector-curvature="0"
         id="path8"
         d="m 25.3,26.3 -4.5,13.1 c 1.3,0.4 2.8,0.6 4.2,0.6 1.7,0 3.4,-0.3 5,-0.9 C 30,39 29.9,39 29.9,38.9 Z" /><path
         style="fill:#ffffff"
         inkscape:connector-curvature="0"
         id="path10"
         d="m 38.2,17.8 c 0.1,0.5 0.1,1 0.1,1.5 0,1.5 -0.3,3.2 -1.1,5.4 L 32.5,38 C 37,35.4 40,30.5 40,25 40,22.4 39.3,19.9 38.2,17.8 Z" /></g><path
       style="fill:#ffb300;stroke-width:0.66727841;fill-opacity:1"
       inkscape:connector-curvature="0"
       class="cls-1"
       d="m 45.697038,43.19976 -4.670949,-9.341896 a 1.3345568,1.3345568 0 0 0 -2.388855,0 l -2.141965,4.303945 -1.80165,-1.221119 a 11.430478,11.430478 0 0 0 3.076151,-6.492619 h 1.394613 a 1.3345569,1.3345569 0 0 0 0,-2.669113 h -5.338228 v -1.334557 a 1.3345568,1.3345568 0 0 0 -2.669112,0 v 1.334557 h -5.338228 a 1.3345569,1.3345569 0 0 0 0,2.669113 h 9.248479 a 8.7346736,8.7346736 0 0 1 -2.528985,4.857787 8.7346736,8.7346736 0 0 1 -2.128618,-3.303029 1.3349115,1.3349115 0 1 0 -2.515639,0.894154 11.41046,11.41046 0 0 0 2.528985,4.057052 l -3.37643,2.415548 a 1.3345568,1.3345568 0 0 0 1.554759,2.168655 l 3.956961,-2.829261 2.722496,1.861707 -1.334557,2.622403 a 1.3354119,1.3354119 0 0 0 2.388857,1.194429 l 0.300276,-0.593877 h 3.196261 a 1.334557,1.334557 0 0 0 0,-2.669114 h -1.841687 l 1.841687,-3.690049 3.476521,6.95304 a 1.3354119,1.3354119 0 0 0 2.388857,-1.194429 z"
       id="path4501" /></g></svg>